<svg width="16" height="16" viewBox="0 0 16 16" fill="none" xmlns="http://www.w3.org/2000/svg">
<path d="M5.75 6.5C5.75 6.56631 5.72366 6.62989 5.67678 6.67678C5.62989 6.72366 5.5663 6.75 5.5 6.75C5.4337 6.75 5.37011 6.72366 5.32322 6.67678C5.27634 6.62989 5.25 6.56631 5.25 6.5C5.25 6.4337 5.27634 6.37011 5.32322 6.32322C5.37011 6.27634 5.4337 6.25 5.5 6.25C5.5663 6.25 5.62989 6.27634 5.67678 6.32322C5.72366 6.37011 5.75 6.4337 5.75 6.5ZM5.75 6.5H5.5M8.25 6.5C8.25 6.56631 8.22366 6.62989 8.17678 6.67678C8.12989 6.72366 8.0663 6.75 8 6.75C7.9337 6.75 7.87011 6.72366 7.82322 6.67678C7.77634 6.62989 7.75 6.56631 7.75 6.5C7.75 6.4337 7.77634 6.37011 7.82322 6.32322C7.87011 6.27634 7.9337 6.25 8 6.25C8.0663 6.25 8.12989 6.27634 8.17678 6.32322C8.22366 6.37011 8.25 6.4337 8.25 6.5ZM8.25 6.5H8M10.75 6.5C10.75 6.56631 10.7237 6.62989 10.6768 6.67678C10.6299 6.72366 10.5663 6.75 10.5 6.75C10.4337 6.75 10.3701 6.72366 10.3232 6.67678C10.2763 6.62989 10.25 6.56631 10.25 6.5C10.25 6.4337 10.2763 6.37011 10.3232 6.32322C10.3701 6.27634 10.4337 6.25 10.5 6.25C10.5663 6.25 10.6299 6.27634 10.6768 6.32322C10.7237 6.37011 10.75 6.4337 10.75 6.5ZM10.75 6.5H10.5M1.5 8.50667C1.5 9.57333 2.24867 10.5027 3.30467 10.658C4.02933 10.7647 4.76133 10.8467 5.5 10.904V14L8.28933 11.2113C8.42744 11.0738 8.61312 10.9945 8.808 10.99C10.1091 10.958 11.407 10.8471 12.6947 10.658C13.7513 10.5027 14.5 9.574 14.5 8.506V4.494C14.5 3.426 13.7513 2.49733 12.6953 2.342C11.1406 2.11381 9.57135 1.99951 8 2C6.40533 2 4.83733 2.11667 3.30467 2.342C2.24867 2.49733 1.5 3.42667 1.5 4.494V8.506V8.50667Z" stroke="#7791BA" stroke-linecap="round" stroke-linejoin="round"/>
</svg>
