<svg width="14" height="15" viewBox="0 0 14 15" fill="none" xmlns="http://www.w3.org/2000/svg">
<path d="M12.4172 7.50008C12.4172 7.74275 12.3308 7.94808 12.1582 8.11608C11.9855 8.28408 11.7778 8.36808 11.5352 8.36808H7.60116V12.3161C7.60116 12.5494 7.51716 12.7524 7.34916 12.9251C7.18116 13.0977 6.97582 13.1841 6.73316 13.1841C6.49049 13.1841 6.28282 13.0977 6.11016 12.9251C5.93749 12.7524 5.85116 12.5494 5.85116 12.3161V8.36808H1.91716C1.67449 8.36808 1.46682 8.28408 1.29416 8.11608C1.12149 7.94808 1.03516 7.74275 1.03516 7.50008C1.03516 7.25742 1.12149 7.04975 1.29416 6.87708C1.46682 6.70442 1.67449 6.61808 1.91716 6.61808H5.85116V2.68408C5.85116 2.44141 5.93749 2.23608 6.11016 2.06808C6.28282 1.90008 6.49049 1.81608 6.73316 1.81608C6.97582 1.81608 7.18116 1.90008 7.34916 2.06808C7.51716 2.23608 7.60116 2.44141 7.60116 2.68408V6.61808H11.5352C11.7778 6.61808 11.9855 6.70442 12.1582 6.87708C12.3308 7.04975 12.4172 7.25742 12.4172 7.50008Z" fill="white"/>
</svg>
